<svg xmlns="http://www.w3.org/2000/svg" viewBox="0 0 600.18 601.6"><defs><style>.cls-1{fill:#c43951;}.cls-2{fill:#fafafa;}</style></defs><g id="Layer_4" data-name="Layer 4"><rect class="cls-1" x="0.4" y="-0.4" width="599.38" height="600.8" transform="translate(-0.4 1.2) rotate(-0.08)"/></g><g id="Layer_3" data-name="Layer 3"><path class="cls-2" d="M495.13,299.69c-9.29-4.63-18.82-11.93-28.23-22.59,0,0-41.16-54.61-102.55-54.53-35.63.05-55,9.48-65.66,20.17-10.69-10.67-30.2-20-65.72-20-61.39.08-102.52,54.8-102.52,54.8-9.38,10.69-18.77,18-28,22.67-24,12.33-46.53,7.14-61.4.08-8-3.82-13.82-8.22-16.38-10.89a65.55,65.55,0,0,0,1.88,10.91c6.18,23.66,31.78,77.25,136.58,77.11,0,0,99.81-.14,135.71-56.7,35.94,56.47,135.75,56.33,135.75,56.33,104.91-.14,130.37-53.79,136.49-77.47a65.7,65.7,0,0,0,1.85-10.91,64,64,0,0,1-16.47,10.93C541.68,306.71,519.17,312,495.13,299.69Z" transform="translate(0 0.8)"/></g></svg>