<svg id="Layer_4" data-name="Layer 4" xmlns="http://www.w3.org/2000/svg" viewBox="0 0 152.47 152.47"><defs><style>.cls-1{fill:#ff9a3e;}.cls-2{fill:#fff;}.cls-3{fill:#f7c099;}.cls-10,.cls-11,.cls-3,.cls-4,.cls-5,.cls-6,.cls-7,.cls-9{fill-rule:evenodd;}.cls-4{fill:#f29877;}.cls-5{fill:#f4846e;}.cls-6{fill:#42231e;}.cls-7{fill:#301a16;}.cls-8{fill:#633a36;}.cls-9{fill:#46231f;}.cls-10{fill:#8c523d;}.cls-11{fill:#e57373;}</style></defs><circle class="cls-1" cx="975.56" cy="295.16" r="76.23" transform="translate(-420.97 965.96) rotate(-77.64)"/><path class="cls-2" d="M1011.75,243a6.87,6.87,0,0,0-2.31,2.33,6,6,0,0,0-1.43,3,.87.87,0,0,0,1.3.75,7.51,7.51,0,0,0,1.93-2.48,9.7,9.7,0,0,0,1.48-2.83A.67.67,0,0,0,1011.75,243Z" transform="translate(-899.32 -218.93)"/><path class="cls-2" d="M1024.32,247.11a.86.86,0,0,0-.6-1.45A21,21,0,0,0,1013,251a.84.84,0,0,0,.82,1.4,24.38,24.38,0,0,0,5.43-2.35A25.76,25.76,0,0,0,1024.32,247.11Z" transform="translate(-899.32 -218.93)"/><path class="cls-2" d="M1023.72,254.54a9.51,9.51,0,0,0-3.64.38,11,11,0,0,0-3.42,1.3.77.77,0,0,0,.38,1.42,13.85,13.85,0,0,0,3.6-.66,12.06,12.06,0,0,0,3.4-1.24A.65.65,0,0,0,1023.72,254.54Z" transform="translate(-899.32 -218.93)"/><path class="cls-2" d="M1031.12,266.35a13.35,13.35,0,0,0-5-2.05,6.8,6.8,0,0,0-4.48.25.56.56,0,0,0-.11.88,9.56,9.56,0,0,0,4.21,1.47,42.69,42.69,0,0,0,5,.76C1031.51,267.73,1031.65,266.71,1031.12,266.35Z" transform="translate(-899.32 -218.93)"/><path class="cls-2" d="M1027.79,272.76a20.16,20.16,0,0,0-1.94-.66.42.42,0,0,0-.47.61,3.9,3.9,0,0,0,.61,1,3.5,3.5,0,0,0,1,.72,3.2,3.2,0,0,0,2.36.5.75.75,0,0,0,.33-1.23C1029.23,273.17,1028.38,273,1027.79,272.76Z" transform="translate(-899.32 -218.93)"/><path class="cls-2" d="M1026.82,255c.42-.15.84-.31,1.25-.5s.89-.64.67-1.14c-.43-1-1.92-.06-2.51.25A.77.77,0,0,0,1026.82,255Z" transform="translate(-899.32 -218.93)"/><path class="cls-2" d="M934.35,313.81a1.26,1.26,0,0,0-.67-2.42,64.66,64.66,0,0,0-8.22,2c-2.46.7-5.29,1.43-7.41,2.91a.81.81,0,0,0,.4,1.49c2.58.15,5.38-.69,7.85-1.36A66.77,66.77,0,0,0,934.35,313.81Z" transform="translate(-899.32 -218.93)"/><path class="cls-2" d="M926.4,323.66c3.88-1.12,6.75-3.56,10.09-5.63a.38.38,0,0,0-.38-.65c-3.6,1.62-7.21,2.64-10.32,5.24C925.3,323,925.83,323.83,926.4,323.66Z" transform="translate(-899.32 -218.93)"/><path class="cls-2" d="M938,321.37a68.28,68.28,0,0,0-6.94,6.34c-2.16,2.14-4.92,4.3-6.35,7A1,1,0,0,0,926,336c2.67-1.51,4.77-4.31,6.83-6.53a68.47,68.47,0,0,0,6.16-7.13C939.43,321.79,938.6,320.94,938,321.37Z" transform="translate(-899.32 -218.93)"/><path class="cls-2" d="M942.21,326a35.15,35.15,0,0,0-5.34,11.51A.63.63,0,0,0,938,338a26.29,26.29,0,0,0,5-11.67A.42.42,0,0,0,942.21,326Z" transform="translate(-899.32 -218.93)"/><path class="cls-2" d="M947.19,329.62c-.9,1.49-1.89,3.69-1.42,5.45a.41.41,0,0,0,.68.18c1.18-1.4,1.22-3.82,1-5.55A.16.16,0,0,0,947.19,329.62Z" transform="translate(-899.32 -218.93)"/><path class="cls-2" d="M920,308.34c1.68.94,4.85,1.13,6.47,0a.75.75,0,0,0-.18-1.35,8.15,8.15,0,0,0-3-.31,13,13,0,0,0-3,.17A.83.83,0,0,0,920,308.34Z" transform="translate(-899.32 -218.93)"/><path class="cls-2" d="M914.15,306.93l-.56-.17a5.73,5.73,0,0,0-1.31,0,.91.91,0,0,0,0,1.81,5.73,5.73,0,0,0,1.31,0c.19,0,.38-.12.56-.17a.9.9,0,0,0,.53-.29.6.6,0,0,0,0-.82A.92.92,0,0,0,914.15,306.93Z" transform="translate(-899.32 -218.93)"/><path class="cls-3" d="M960.2,256s-2.14,34.33-.57,47.72,2.42,18.94,12.39,22.36,24.21-2.56,26.48-14.53.29-55,.29-55S972,244.6,960.2,256Z" transform="translate(-899.32 -218.93)"/><path class="cls-3" d="M959.35,273.91c-3.1-1.68-6.62-1.12-8.31,3.44-1.49,4,2.21,8.27,6.23,9.81a8.89,8.89,0,0,0,1.79.47c0-4.55.14-9.31.29-13.72Z" transform="translate(-899.32 -218.93)"/><path class="cls-4" d="M956.58,286.87c.23.11.46.2.69.29a8.89,8.89,0,0,0,1.79.47c0-2.89.06-5.87.15-8.78a3.73,3.73,0,0,0-1.6-.09c-3.1.5-3.05,5.28-1,8.11Z" transform="translate(-899.32 -218.93)"/><path class="cls-3" d="M999.41,275.05c3.61-5.27,10.47-7.23,13.14,0,1.63,4.37-2.42,9-6.8,10.7a8.27,8.27,0,0,1-6.17,0c0-3.65-.09-7.31-.17-10.74Z" transform="translate(-899.32 -218.93)"/><path class="cls-4" d="M1006.5,285.43l-.75.32a8.27,8.27,0,0,1-6.17,0h0v-.33h0v-1.37h0v-.84h0v-.52h0v-.32h0v-.51h0V281h0v-.33l0-.17v-.34c1.21-1.83,3.23-4,5.87-3.59,3.37.55,3.34,5.76,1.12,8.85Z" transform="translate(-899.32 -218.93)"/><path class="cls-5" d="M964,283.82s-2.22-3.11-4.88-2.72-1.22,3.8,2,4.2,3.66-.65,2.87-1.48Z" transform="translate(-899.32 -218.93)"/><path class="cls-5" d="M992.61,283.93s2.49-4.2,5.91-3.84,1.93,4.91-2.13,5.62-4.7-.64-3.78-1.78Z" transform="translate(-899.32 -218.93)"/><path class="cls-4" d="M960.2,256s-.16,2.46-.36,6.31c3.88-1.62,13.57-5.4,20.81-6,7.77-.61,16,6.91,18.49,9.35-.19-5.47-.35-9.13-.35-9.13S972,244.6,960.2,256Z" transform="translate(-899.32 -218.93)"/><path class="cls-6" d="M998.86,263s3-12-.42-18.38-13.67-10.54-27.5-5.69-20.93,6.83-25.49,2-2.13-11.39-2.13-11.39-7.41,3.27-6.84,11,7,9.12,7,9.12a7.64,7.64,0,0,1-8.12,1.71c-5.12-1.71-5-5.42-5-5.42s-5,15.53,4.41,21.36c7.75,4.83,18,.06,25.54-5.68,11.47-8.76,30.51-15.92,38.55,1.42Z" transform="translate(-899.32 -218.93)"/><path class="cls-6" d="M957.33,303c-.86,3-2.63,9.88-2.53,15.29a39.06,39.06,0,0,0,2.92,13.38s.79,4.21-.64,6.83a9.13,9.13,0,0,1-3.71,3.71,14.77,14.77,0,0,0,4.42.78c1.92-.07,3.7-2.48,3.7-2.48s.86,5.12-8,9.11-12.39,2.71-12.39,2.71,4.27,10.11,13.52,10.68,14.4-1.57,14.4-1.57a15.57,15.57,0,0,1-3.78,3.06,16.23,16.23,0,0,1-3.13,1.07s9.82,2.13,24.07-8.69,12.95-25.35,12.95-25.35a31.91,31.91,0,0,1,1.14,5.63,18.35,18.35,0,0,1-.06,3.63,15.11,15.11,0,0,0,5.76-8.48c1.57-5.83.92-8.68.92-8.68a16.74,16.74,0,0,0,3.5,2.85c1.88,1.07,4.59.06,4.59.06a57.63,57.63,0,0,1-3.17-9.39,68.21,68.21,0,0,1-1.93-11.34A28.48,28.48,0,0,1,996,307.68a29.35,29.35,0,0,1-8.22-2.15c-1.94,18.61-14.91,15.79-13.64,8.17l-5.41.71s1.85,5.83-3.28,5.27c-4.33-.48-4.85-14.29-4.91-18.56-1,.67-2.11,1.32-3.24,1.92Z" transform="translate(-899.32 -218.93)"/><path class="cls-7" d="M957.33,303c-.2.69-.45,1.59-.71,2.63l4-1.71c0-1.14-.07-2.13-.09-2.84-1,.67-2.11,1.32-3.24,1.92Zm52.82,5.23c-.12-1-.19-1.84-.24-2.42A28.48,28.48,0,0,1,996,307.68a29.35,29.35,0,0,1-8.22-2.15c-.08.85-.19,1.64-.33,2.41a38.12,38.12,0,0,0,13,1.7,32.2,32.2,0,0,0,9.7-1.37Z" transform="translate(-899.32 -218.93)"/><path class="cls-6" d="M970.77,286.41s-3.42-4.28-13.53-1-14.53,7-21.22,4.42-4.14-10.39-1.42-11.53a8.57,8.57,0,0,1,5-.57s-5.41-2.78-9.19.63-2.92,9.55-2.92,9.55a7.25,7.25,0,0,1-2.29-1.41,7.94,7.94,0,0,1-1.25-2.56,13.32,13.32,0,0,0,.92,11.33,11.08,11.08,0,0,0,9.62,5.69,5.8,5.8,0,0,1-2.32,1.56,12.16,12.16,0,0,1-2,.43s4.49,4.31,16.88,3.32,22.86-13.1,22.86-13.1S982.64,306.4,996,307.68s19.51-5.42,19.51-5.42l-4.45-1.31s10.86-1.11,14.28-5.52,2.85-7.69,2.85-7.69l-4.7,3.41a17.81,17.81,0,0,0,.42-10.11c-1.42-5.41-5.4-6.4-5.4-6.4s6.35,11.82-5.28,15.38a13.54,13.54,0,0,1-1.75.4c-4.34.72-9.82-.25-14.42-1.74-8.22-2.67-15.85-6.59-26.32-2.27Z" transform="translate(-899.32 -218.93)"/><path class="cls-8" d="M955.89,291.82a.38.38,0,0,0-.37-.63c-2.35.64-4.51,1.9-6.86,2.6a23.09,23.09,0,0,1-7.61,1,21.14,21.14,0,0,1-6.49-1.33,14.49,14.49,0,0,1-5.65-4.3c-.1-.11-.28,0-.2.16,2.42,3.73,7.15,6.24,11.49,6.77a21.54,21.54,0,0,0,8.22-.69C951,294.73,954,293.66,955.89,291.82Z" transform="translate(-899.32 -218.93)"/><path class="cls-8" d="M1017.36,292.46c-3,1.31-5.72,2.7-9,3.23a22,22,0,0,1-9.31-.46c-5.86-1.58-10.74-5.57-16.7-6.88-.22-.05-.32.28-.1.34,6.65,1.66,11.83,6.73,18.56,8.17,5.51,1.17,12.8.35,17.06-3.68C1018.32,292.8,1017.81,292.27,1017.36,292.46Z" transform="translate(-899.32 -218.93)"/><path class="cls-8" d="M1005.06,301.43a21.3,21.3,0,0,1-7,.18,29.44,29.44,0,0,1-6.42-2.23,39.36,39.36,0,0,1-5.61-2.84c-1.69-1.11-2.81-2.86-4.57-3.83a.12.12,0,0,0-.12.21c1.82,1.32,3,3.25,4.92,4.53a57.51,57.51,0,0,0,6.56,3.86c3.63,1.79,8.73,3.4,12.5,1.12C1005.75,302.18,1005.62,301.35,1005.06,301.43Z" transform="translate(-899.32 -218.93)"/><path class="cls-8" d="M956.72,296.33A28.87,28.87,0,0,1,944,298.85c-.34,0-.44.55-.08.62a20,20,0,0,0,13.1-2.66C957.32,296.64,957,296.18,956.72,296.33Z" transform="translate(-899.32 -218.93)"/><path class="cls-8" d="M936.18,298.24a12.47,12.47,0,0,0-3.59-1.21c-.07,0-.12.09-.06.12a12.52,12.52,0,0,0,3.43,1.62A.29.29,0,0,0,936.18,298.24Z" transform="translate(-899.32 -218.93)"/><path class="cls-8" d="M962.87,287.2c-1.82-1.06-4.71.22-6,1.64a.12.12,0,0,0,.11.19,12.41,12.41,0,0,1,3-.77,13.84,13.84,0,0,0,2.73-.12A.52.52,0,0,0,962.87,287.2Z" transform="translate(-899.32 -218.93)"/><path class="cls-8" d="M981.84,297.55a13.86,13.86,0,0,0-5.2-3.48c-.33-.14-.7.23-.41.53a14.09,14.09,0,0,0,5.23,3.59C981.86,298.32,982.06,297.82,981.84,297.55Z" transform="translate(-899.32 -218.93)"/><path class="cls-8" d="M1004.64,311.08a.11.11,0,0,0-.22,0c-.38,3.07-.29,6.42,2,8.85a.49.49,0,0,0,.81-.47C1006.37,316.66,1004.93,314,1004.64,311.08Z" transform="translate(-899.32 -218.93)"/><path class="cls-8" d="M997.17,315.3c-.1-1.29.21-2.59.05-3.87a0,0,0,0,0-.09,0c-1.09,1.93-.78,5-.51,7.14a21.6,21.6,0,0,0,2.41,7.72c.18.33.6.08.56-.24-.33-2.39-1.19-4.66-1.74-7A25,25,0,0,1,997.17,315.3Z" transform="translate(-899.32 -218.93)"/><path class="cls-8" d="M989.07,311.52c-1.68,8.51-1.35,17.28-3,25.79A33.88,33.88,0,0,1,981.73,349c-2.24,3.58-5.25,6.06-8.25,8.92-.44.41.12,1,.6.78,7.25-3.31,11.62-11.93,13.18-19.31,1.94-9.12.65-18.54,2.3-27.69C989.62,311.33,989.13,311.19,989.07,311.52Z" transform="translate(-899.32 -218.93)"/><path class="cls-8" d="M992.13,320.57c-.14,3.89,1.19,7.59,1.29,11.46a27.2,27.2,0,0,1-2.51,11.5.35.35,0,0,0,.6.35,19.38,19.38,0,0,0,3.13-10.54c.06-4.39-1.87-8.42-2-12.77A.24.24,0,0,0,992.13,320.57Z" transform="translate(-899.32 -218.93)"/><path class="cls-8" d="M977.61,326.42a.38.38,0,0,0-.71.19c1,7.66.69,15.6-4.54,21.81a20.64,20.64,0,0,1-19.77,7,.13.13,0,0,0-.07.25c7.41,2.45,15.9-.28,21-6.15C978.69,343.47,980.81,333.9,977.61,326.42Z" transform="translate(-899.32 -218.93)"/><path class="cls-8" d="M965.73,324.68a.38.38,0,0,0-.74.2,11.86,11.86,0,0,1,0,6.23c-.55,1.95-1.71,3.42-2.54,5.21-.14.28.16.69.48.48C966.49,334.36,966.81,328.41,965.73,324.68Z" transform="translate(-899.32 -218.93)"/><path class="cls-8" d="M968,341.43c-.16.4.41.66.69.4,4-3.8,2.1-10.19,1.31-14.81h0a35.41,35.41,0,0,1,0,7.77A24.9,24.9,0,0,1,968,341.43Z" transform="translate(-899.32 -218.93)"/><path class="cls-8" d="M960.29,324.09c-.86-3.67-1.64-7.12-1.28-10.93,0-.32-.47-.37-.55-.08-1,3.7-1,8,1.08,11.33A.41.41,0,0,0,960.29,324.09Z" transform="translate(-899.32 -218.93)"/><path class="cls-8" d="M961.36,323.55a52.16,52.16,0,0,0,1.18,5.82c.06.22.43.19.41-.05a55,55,0,0,0-.76-6C962.09,322.78,961.28,323,961.36,323.55Z" transform="translate(-899.32 -218.93)"/><path class="cls-8" d="M980.75,324.19c.15,2.72.19,5.44.33,8.16,0,.31.52.42.58.08a22.11,22.11,0,0,0-.46-8.3C981.14,323.88,980.73,323.93,980.75,324.19Z" transform="translate(-899.32 -218.93)"/><path class="cls-8" d="M958.87,351.78a14.11,14.11,0,0,0,5.1-3.25c.33-.29-.15-.75-.48-.47a44.68,44.68,0,0,1-4.82,3.25C958.44,351.47,958.58,351.87,958.87,351.78Z" transform="translate(-899.32 -218.93)"/><path class="cls-8" d="M973.51,322.21c-.21-1.37-.42-2.73-.58-4.1a.3.3,0,0,0-.59,0,8.33,8.33,0,0,0,.77,4.26C973.23,322.62,973.55,322.43,973.51,322.21Z" transform="translate(-899.32 -218.93)"/><path class="cls-8" d="M969.84,321.7a5.76,5.76,0,0,0,1.6,4.26c.21.19.63,0,.52-.3-.25-.68-.62-1.3-.89-2s-.44-1.38-.71-2.06A.27.27,0,0,0,969.84,321.7Z" transform="translate(-899.32 -218.93)"/><path class="cls-8" d="M992.34,316.66a25.18,25.18,0,0,0,.58-5.2c0-.5-.71-.48-.76,0a25.19,25.19,0,0,0-.33,5.13A.26.26,0,0,0,992.34,316.66Z" transform="translate(-899.32 -218.93)"/><path class="cls-8" d="M947.68,355.76c-.15-.1-.31.12-.19.24,1.94,1.88,4.1,3.89,6.81,4.51a.39.39,0,0,0,.3-.71C952.45,358.22,949.88,357.27,947.68,355.76Z" transform="translate(-899.32 -218.93)"/><path class="cls-8" d="M988.4,348.3a10.75,10.75,0,0,1-1.59,4c-.14.25.17.64.44.43a4.72,4.72,0,0,0,1.58-4.5C988.8,348,988.43,348.08,988.4,348.3Z" transform="translate(-899.32 -218.93)"/><path class="cls-8" d="M978.17,242.67c3.44-.21,6.94-.94,10.31.19,3,1,4.47,3,5.68,5.85,0,.09.2.07.21,0,.47-2.82-2.08-5.53-4.36-6.77-3.64-2-8.21-1.54-12-.14C977.6,241.93,977.62,242.71,978.17,242.67Z" transform="translate(-899.32 -218.93)"/><path class="cls-8" d="M974.55,249.2c3.66-1.24,7-2.53,11-1.66a.3.3,0,0,0,.16-.57c-3.73-1.23-8.47-1.45-11.67,1.27A.58.58,0,0,0,974.55,249.2Z" transform="translate(-899.32 -218.93)"/><path class="cls-8" d="M992.66,251.37c-.25-.09-.53.25-.36.47.4.54.92,1,1.32,1.51s.78,1.13,1.15,1.7a.34.34,0,0,0,.61-.26A4.72,4.72,0,0,0,992.66,251.37Z" transform="translate(-899.32 -218.93)"/><path class="cls-8" d="M950,250.85a14.08,14.08,0,0,0,9.3-1.13c.49-.27.31-1.19-.3-1.11-2.83.37-5.46,1.1-8.36.73-2.72-.35-5.57-1.33-7.37-3.48-.15-.17-.38.08-.25.25A12.18,12.18,0,0,0,950,250.85Z" transform="translate(-899.32 -218.93)"/><path class="cls-8" d="M950,262.35c5.63-1.19,12.24-4.39,15.64-9.21.34-.48-.34-1.17-.82-.82-2,1.44-3.84,3.11-6,4.42a32.45,32.45,0,0,1-7.12,3.31c-5.24,1.68-12.12,2.32-15.1-3.39-.12-.23-.52-.07-.43.18C938.27,262.38,944.85,263.44,950,262.35Z" transform="translate(-899.32 -218.93)"/><path class="cls-8" d="M955.77,253.87c-2.67.61-5,1.62-7.8,1.78-.29,0-.38.45-.07.52,2.76.64,6.13.53,8.43-1.33C956.8,254.45,956.28,253.76,955.77,253.87Z" transform="translate(-899.32 -218.93)"/><path class="cls-8" d="M967.28,246.38a9.43,9.43,0,0,0,3.12-1.76.31.31,0,0,0-.3-.52,9.53,9.53,0,0,0-3.16,1.48C966.54,245.83,966.8,246.58,967.28,246.38Z" transform="translate(-899.32 -218.93)"/><path class="cls-6" d="M980.74,258.77a5.34,5.34,0,0,1,4.55-3.27c3.43-.22,3.64,4.55,3.64,4.55Z" transform="translate(-899.32 -218.93)"/><path class="cls-6" d="M964.42,262.74a4.48,4.48,0,0,1,2-3.68c2-1.09,4.47.86,4.47.86s-6.47,2.75-6.45,2.82Z" transform="translate(-899.32 -218.93)"/><path class="cls-9" d="M981.8,269.6s.93,5.77,3.71,6.27,2.92-6.34,2.92-6.34-1.29,4.56-3.28,4.05-3.2-3.76-3.35-4Z" transform="translate(-899.32 -218.93)"/><path class="cls-9" d="M962.36,270s.93,5.77,3.71,6.26,2.92-6.34,2.92-6.34-1.28,4.57-3.28,4.06-3.2-3.77-3.35-4Z" transform="translate(-899.32 -218.93)"/><path class="cls-10" d="M967.4,300.35s1.11,6.19,4.17,5.69,3.81-6.2,3.81-6.2,2.17,8-2.32,9-6.19-4.69-5.66-8.5Z" transform="translate(-899.32 -218.93)"/><path class="cls-6" d="M952.93,266.47a89.14,89.14,0,0,1,9.75-2.21,26.43,26.43,0,0,1,8.83.07l.09,2.83a9.48,9.48,0,0,1,2.82-.58,9.35,9.35,0,0,1,2.9.46,31.12,31.12,0,0,1,.18-4s10-1.77,14.67-1.85,7.76-.14,7.76-.14v3.14l3.2-.22-.21,5.91-2.41-1-.79,9.18s-3.21,1.21-10.33,1.5a32.85,32.85,0,0,1-11.32-1.22s-.57-4.63-.72-9.3a9.2,9.2,0,0,0-3-.56,11.84,11.84,0,0,0-2.65.58l.28,9.36s-7.83,1.5-11,2a19.18,19.18,0,0,1-4.41.36,63.41,63.41,0,0,1-3.63-14.31Zm27.13-1.14s6-1.07,9.55-1.28a47.78,47.78,0,0,1,7,.14l-.43,12.6a108.34,108.34,0,0,1-11,.43,41.17,41.17,0,0,1-5-.5s-.06-11.39-.14-11.39Zm-24.28,2.77a57.36,57.36,0,0,1,7.62-1.92,21.3,21.3,0,0,1,5.91-.22l.92,11.19L958,278.92s-2.36-8.68-2.21-10.82Z" transform="translate(-899.32 -218.93)"/><path class="cls-11" d="M972.65,269.17s-2.48,9.33-4.91,14.17a56,56,0,0,1-5.84,9,46.49,46.49,0,0,0,10.18-1c5.06-1.14,5.56-2.21,5.56-2.21s.71-11.11-5-20Z" transform="translate(-899.32 -218.93)"/></svg>