<svg id="Layer_6" data-name="Layer 6" xmlns="http://www.w3.org/2000/svg" viewBox="0 0 50.78 56.62"><defs><style>.cls-1{fill:#ff6259;}.cls-2{fill:#ff805c;}.cls-3{fill:#f1654b;}.cls-4{fill:#ab4a3c;}.cls-5{fill:#24303c;}</style></defs><path class="cls-1" d="M40.17,25.1h7.36A2.49,2.49,0,0,1,50,27.58v4.61a2.49,2.49,0,0,1-2.49,2.49H40.17a0,0,0,0,1,0,0V25.1A0,0,0,0,1,40.17,25.1Z"/><path class="cls-1" d="M855.45,478.77h7.36a2.49,2.49,0,0,1,2.49,2.49v4.61a2.49,2.49,0,0,1-2.49,2.49h-7.36a0,0,0,0,1,0,0v-9.58a0,0,0,0,1,0,0Z" transform="translate(865.29 513.44) rotate(-180)"/><rect class="cls-2" x="7.61" y="4.94" width="34.8" height="51.68" rx="7.42"/><path class="cls-3" d="M883.56,458.61h-6.2a14.3,14.3,0,0,0-14.3,14.3V477h34.8v-4.1A14.3,14.3,0,0,0,883.56,458.61Z" transform="translate(-855.45 -453.67)"/><path class="cls-4" d="M867.74,465.69s.72-4.33,8.19-1.56,7.94,8.67,16.13,8.67h7.59s1.8-7.47-6.38-14.69-19.87-4.46-25.89,0C864.13,460.52,864.13,464.61,867.74,465.69Z" transform="translate(-855.45 -453.67)"/><path class="cls-4" d="M866.62,464.17s-1.77-2.25-4.82,2.57S863.06,477,863.06,477h1.31S872.72,466.74,866.62,464.17Z" transform="translate(-855.45 -453.67)"/><path class="cls-5" d="M889.69,472.6a2.43,2.43,0,0,0,3.37.62l5.62-3.93,2,1.43a2.94,2.94,0,1,0,1.24-1.17l-2.5-1.75,2.5-1.75a3,3,0,1,0-1.24-1.17l-2,1.43-5.62-3.93a2.42,2.42,0,0,0-3.37.61l6.86,4.81Zm13.58-1.94a1.53,1.53,0,1,1-1.53,1.53A1.53,1.53,0,0,1,903.27,470.66Zm0-8.78a1.53,1.53,0,1,1-1.53,1.53A1.53,1.53,0,0,1,903.27,461.88Z" transform="translate(-855.45 -453.67)"/></svg>