<svg id="Layer_7" data-name="Layer 7" xmlns="http://www.w3.org/2000/svg" viewBox="0 0 50.02 59.29"><defs><style>.cls-1{fill:#ff6259;}.cls-2{fill:#ff805c;}.cls-3{fill:#f1654b;}.cls-4{fill:#ab4a3c;}.cls-5{fill:#fff;}</style></defs><path class="cls-1" d="M40.17,27.76h7.36A2.49,2.49,0,0,1,50,30.25v4.61a2.49,2.49,0,0,1-2.49,2.49H40.17a0,0,0,0,1,0,0V27.76a0,0,0,0,1,0,0Z"/><path class="cls-1" d="M855.45,610.73h7.36a2.49,2.49,0,0,1,2.49,2.49v4.61a2.49,2.49,0,0,1-2.49,2.49h-7.36a0,0,0,0,1,0,0v-9.58A0,0,0,0,1,855.45,610.73Z" transform="translate(865.29 648.07) rotate(-180)"/><rect class="cls-2" x="7.61" y="7.6" width="34.8" height="51.68" rx="7.42"/><path class="cls-3" d="M883.56,590.57h-6.2a14.3,14.3,0,0,0-14.3,14.3V609h34.8v-4.11A14.3,14.3,0,0,0,883.56,590.57Z" transform="translate(-855.45 -582.97)"/><path class="cls-4" d="M867.74,597.66s.72-4.33,8.19-1.56,7.94,8.66,16.13,8.66h7.59s1.8-7.46-6.38-14.69-19.87-4.45-25.89,0C864.13,592.48,864.13,596.58,867.74,597.66Z" transform="translate(-855.45 -582.97)"/><path class="cls-4" d="M866.62,596.14s-1.77-2.25-4.82,2.56S863.06,609,863.06,609h1.31S872.72,598.7,866.62,596.14Z" transform="translate(-855.45 -582.97)"/><path class="cls-5" d="M891.34,587.14a4.18,4.18,0,1,1-4.17-4.17A4.18,4.18,0,0,1,891.34,587.14Z" transform="translate(-855.45 -582.97)"/><path class="cls-5" d="M904.82,603.2a4.17,4.17,0,1,1-4.17-4.18A4.17,4.17,0,0,1,904.82,603.2Z" transform="translate(-855.45 -582.97)"/><path class="cls-5" d="M901.61,596.46a4.17,4.17,0,1,1-4.17-4.18A4.17,4.17,0,0,1,901.61,596.46Z" transform="translate(-855.45 -582.97)"/><path class="cls-5" d="M896.8,590.36a4.18,4.18,0,1,1-4.18-4.18A4.18,4.18,0,0,1,896.8,590.36Z" transform="translate(-855.45 -582.97)"/><path class="cls-5" d="M883.63,587.47a4.17,4.17,0,1,1-4.17-4.18A4.17,4.17,0,0,1,883.63,587.47Z" transform="translate(-855.45 -582.97)"/><path class="cls-5" d="M876.57,589.71a4.18,4.18,0,1,1-4.17-4.17A4.18,4.18,0,0,1,876.57,589.71Z" transform="translate(-855.45 -582.97)"/><path class="cls-5" d="M870.47,593.89a4.18,4.18,0,1,1-4.18-4.18A4.18,4.18,0,0,1,870.47,593.89Z" transform="translate(-855.45 -582.97)"/><path class="cls-5" d="M866.62,598.7a4.18,4.18,0,1,1-4.18-4.17A4.18,4.18,0,0,1,866.62,598.7Z" transform="translate(-855.45 -582.97)"/><path class="cls-5" d="M866.94,604.8a4.18,4.18,0,1,1-4.18-4.17A4.18,4.18,0,0,1,866.94,604.8Z" transform="translate(-855.45 -582.97)"/><path class="cls-5" d="M873,600.31a4.18,4.18,0,1,1-4.18-4.17A4.18,4.18,0,0,1,873,600.31Z" transform="translate(-855.45 -582.97)"/><path class="cls-5" d="M878.82,594.85a4.18,4.18,0,1,1-4.18-4.17A4.17,4.17,0,0,1,878.82,594.85Z" transform="translate(-855.45 -582.97)"/><path class="cls-5" d="M885.56,593.25a4.18,4.18,0,1,1-4.17-4.18A4.17,4.17,0,0,1,885.56,593.25Z" transform="translate(-855.45 -582.97)"/><circle class="cls-5" cx="32.04" cy="12.52" r="4.17"/><path class="cls-5" d="M897.76,600.63a4.18,4.18,0,1,1-4.17-4.17A4.17,4.17,0,0,1,897.76,600.63Z" transform="translate(-855.45 -582.97)"/></svg>