<svg id="Layer_8" data-name="Layer 8" xmlns="http://www.w3.org/2000/svg" viewBox="0 0 50.02 63.07"><defs><style>.cls-1{fill:#ff6259;}.cls-2{fill:#ff805c;}.cls-3{fill:#f1654b;}.cls-4{fill:#ab4a3c;}.cls-5{fill:#95392d;}.cls-6{fill:#24303c;}</style></defs><path class="cls-1" d="M40.17,25.1h7.36A2.49,2.49,0,0,1,50,27.58v4.61a2.49,2.49,0,0,1-2.49,2.49H40.17a0,0,0,0,1,0,0V25.1A0,0,0,0,1,40.17,25.1Z"/><path class="cls-1" d="M855.45,742.7h7.36a2.49,2.49,0,0,1,2.49,2.49v4.61a2.49,2.49,0,0,1-2.49,2.49h-7.36a0,0,0,0,1,0,0V742.7A0,0,0,0,1,855.45,742.7Z" transform="translate(865.29 777.37) rotate(180)"/><rect class="cls-2" x="7.61" y="4.94" width="34.8" height="51.68" rx="7.42"/><path class="cls-3" d="M883.56,722.54h-6.2a14.3,14.3,0,0,0-14.3,14.3v4.1h34.8v-4.1A14.3,14.3,0,0,0,883.56,722.54Z" transform="translate(-855.45 -717.6)"/><path class="cls-4" d="M867.74,729.63s.72-4.34,8.19-1.57,7.94,8.67,16.13,8.67h7.59s1.8-7.47-6.38-14.69-19.87-4.45-25.89,0C864.13,724.45,864.13,728.54,867.74,729.63Z" transform="translate(-855.45 -717.6)"/><path class="cls-4" d="M866.62,728.1s-1.77-2.25-4.82,2.57,1.26,10.27,1.26,10.27h1.31S872.72,730.67,866.62,728.1Z" transform="translate(-855.45 -717.6)"/><rect class="cls-5" x="7.76" y="27.48" width="33.85" height="34.81" rx="7.22"/><path class="cls-4" d="M901,762.36c-3.68-22.85-19.27-17.71-20.83-17.13-1.57-.58-17.15-5.72-20.84,17.13,0,0,18.87-.49,20.84-15.79C882.1,761.87,901,762.36,901,762.36Z" transform="translate(-855.45 -717.6)"/><path class="cls-6" d="M886.5,778.12a2.44,2.44,0,0,0,3.38.62l5.61-3.93,2,1.43a2.94,2.94,0,1,0,1.24-1.17l-2.5-1.75,2.5-1.75a3,3,0,1,0-1.24-1.17l-2,1.43-5.61-3.93a2.44,2.44,0,0,0-3.38.61l6.86,4.81Zm13.58-1.94a1.53,1.53,0,1,1-1.53,1.53A1.52,1.52,0,0,1,900.08,776.18Zm0-8.78a1.53,1.53,0,1,1-1.53,1.53A1.52,1.52,0,0,1,900.08,767.4Z" transform="translate(-855.45 -717.6)"/></svg>