<svg id="Layer_3" data-name="Layer 3" xmlns="http://www.w3.org/2000/svg" viewBox="0 0 182.68 298.71"><defs><style>.cls-1{fill:#ff6259;}.cls-2{fill:#ff805c;}.cls-3{fill:#f57148;}.cls-4{fill:#95392d;}.cls-5{fill:#ab4a3c;}.cls-6{fill:#fff;}.cls-7{fill:#ff4e4a;}.cls-8{fill:#e65c3c;}.cls-9{fill:#fafafa;}</style></defs><path class="cls-1" d="M489.14,439.9H470.68v-35h18.46a17.49,17.49,0,0,1,17.49,17.49h0A17.49,17.49,0,0,1,489.14,439.9Z" transform="translate(-323.95 -296.3)"/><path class="cls-1" d="M341.44,439.9H359.9v-35H341.44A17.49,17.49,0,0,0,324,422.41h0A17.49,17.49,0,0,0,341.44,439.9Z" transform="translate(-323.95 -296.3)"/><rect class="cls-2" x="27.79" y="35" width="127.1" height="188.77" rx="19.69"/><path class="cls-3" d="M460.86,500.31l13-10.26a52.09,52.09,0,0,0,5-22.21V383.38H446.66c-38.25,0-33.88,33.88-33.88,33.88v62.29Z" transform="translate(-323.95 -296.3)"/><rect class="cls-4" x="27.79" y="131.2" width="127.1" height="130.7" rx="19.69"/><path class="cls-5" d="M382.63,356.34a16.38,16.38,0,0,1-14.95-14.86c-.79-8.61.93-20.06,11.58-30.33,20.4-20.4,39.35-13.85,39.35-13.85l-10.2,12.39s13.12-13.11,39.35.73l-6.56,8.75s12.39-2.92,21.87,13.85l-10.93,4.37s4.37.73,5.1,14.57l-14.58-6.56S417.62,359.12,382.63,356.34Z" transform="translate(-323.95 -296.3)"/><path class="cls-6" d="M490.73,445.25h0a4.13,4.13,0,0,1-4.13-4.13v-7.78a4.13,4.13,0,0,1,4.13-4.13h0a4.13,4.13,0,0,1,4.13,4.13v7.78A4.13,4.13,0,0,1,490.73,445.25Z" transform="translate(-323.95 -296.3)"/><path class="cls-5" d="M493.51,492.37c-13.83-85.79-72.33-66.49-78.22-64.31-5.88-2.18-64.38-21.48-78.22,64.31,0,0,70.85-1.86,78.22-59.29C422.67,490.51,493.51,492.37,493.51,492.37Z" transform="translate(-323.95 -296.3)"/><rect class="cls-7" x="79.32" y="114.94" width="21.38" height="21.86"/><path class="cls-8" d="M373.17,402.49c0,.08,0,.16,0,.24a10.93,10.93,0,1,0,21.86,0c0-.08,0-.16,0-.24Z" transform="translate(-323.95 -296.3)"/><path class="cls-9" d="M390.15,508.45a12.73,12.73,0,0,0-3.22,17.66l20.57,29.38L400,566.17a15.46,15.46,0,1,0,6.11,6.51l9.16-13.09,9.16,13.08a15.47,15.47,0,1,0,6.12-6.5l-7.49-10.68,20.57-29.38a12.74,12.74,0,0,0-3.21-17.66l-25.15,35.91Zm10.19,71.07a8,8,0,1,1-8-8A8,8,0,0,1,400.34,579.52Zm45.94,0a8,8,0,1,1-8-8A8,8,0,0,1,446.28,579.52Z" transform="translate(-323.95 -296.3)"/></svg>