<svg id="Layer_11" data-name="Layer 11" xmlns="http://www.w3.org/2000/svg" viewBox="0 0 50.02 58.55"><defs><style>.cls-1{fill:#ff6259;}.cls-2{fill:#ff805c;}.cls-3{fill:#f1654b;}.cls-4{fill:#ab4a3c;}</style></defs><path class="cls-1" d="M40.17,27h7.36A2.49,2.49,0,0,1,50,29.51v4.61a2.49,2.49,0,0,1-2.49,2.49H40.17a0,0,0,0,1,0,0V27A0,0,0,0,1,40.17,27Z"/><path class="cls-1" d="M1411.8,547.16h7.36a2.49,2.49,0,0,1,2.49,2.49v4.61a2.49,2.49,0,0,1-2.49,2.49h-7.36a0,0,0,0,1,0,0v-9.58A0,0,0,0,1,1411.8,547.16Z" transform="translate(1421.65 583.76) rotate(-180)"/><rect class="cls-2" x="7.61" y="6.86" width="34.8" height="51.68" rx="7.42"/><path class="cls-3" d="M1439.91,527h-6.2a14.3,14.3,0,0,0-14.3,14.3v4.1h34.8v-4.1A14.3,14.3,0,0,0,1439.91,527Z" transform="translate(-1411.8 -520.13)"/><path class="cls-4" d="M1419.76,540.11s-7.39-7.39,2.25-16.06,26.32-1.28,31.14,6.1c4.5,7.39,1,10,1,10Z" transform="translate(-1411.8 -520.13)"/></svg>