<svg id="Layer_9" data-name="Layer 9" xmlns="http://www.w3.org/2000/svg" viewBox="0 0 50.02 56.62"><defs><style>.cls-1{fill:#ff6259;}.cls-2{fill:#ff805c;}.cls-3{fill:#f1654b;}.cls-4{fill:#ab4a3c;}</style></defs><path class="cls-1" d="M40.17,25.1h7.36A2.49,2.49,0,0,1,50,27.58v4.61a2.49,2.49,0,0,1-2.49,2.49H40.17a0,0,0,0,1,0,0V25.1A0,0,0,0,1,40.17,25.1Z"/><path class="cls-1" d="M1411.8,405.56h7.36a2.49,2.49,0,0,1,2.49,2.49v4.61a2.49,2.49,0,0,1-2.49,2.49h-7.36a0,0,0,0,1,0,0v-9.58a0,0,0,0,1,0,0Z" transform="translate(1421.65 440.23) rotate(-180)"/><rect class="cls-2" x="7.61" y="4.94" width="34.8" height="51.68" rx="7.42"/><path class="cls-3" d="M1439.91,385.4h-6.2a14.3,14.3,0,0,0-14.3,14.3v4.11h34.8V399.7A14.3,14.3,0,0,0,1439.91,385.4Z" transform="translate(-1411.8 -380.46)"/><path class="cls-4" d="M1424.09,392.49s.73-4.34,8.19-1.57,8,8.67,16.14,8.67H1456s1.81-7.46-6.38-14.69-19.87-4.45-25.89,0C1420.48,387.31,1420.48,391.4,1424.09,392.49Z" transform="translate(-1411.8 -380.46)"/><path class="cls-4" d="M1423,391s-1.77-2.25-4.82,2.57,1.26,10.28,1.26,10.28h1.31S1429.07,393.53,1423,391Z" transform="translate(-1411.8 -380.46)"/></svg>