<svg id="Layer_10" data-name="Layer 10" xmlns="http://www.w3.org/2000/svg" viewBox="0 0 50.02 51.68"><defs><style>.cls-1{fill:#ff6259;}.cls-2{fill:#ff805c;}.cls-3{fill:#ab4a3c;}</style></defs><path class="cls-1" d="M40.17,20.16h7.36A2.49,2.49,0,0,1,50,22.64v4.61a2.49,2.49,0,0,1-2.49,2.49H40.17a0,0,0,0,1,0,0V20.16A0,0,0,0,1,40.17,20.16Z"/><path class="cls-1" d="M1555.33,405.56h7.36a2.49,2.49,0,0,1,2.49,2.49v4.61a2.49,2.49,0,0,1-2.49,2.49h-7.36a0,0,0,0,1,0,0v-9.58A0,0,0,0,1,1555.33,405.56Z" transform="translate(1565.17 435.29) rotate(-180)"/><rect class="cls-2" x="7.61" width="34.8" height="51.68" rx="7.42"/><path class="cls-3" d="M1583.44,385.4h-6.21a14.29,14.29,0,0,0-14.29,14.3v4.11h34.8V399.7A14.3,14.3,0,0,0,1583.44,385.4Z" transform="translate(-1555.33 -385.4)"/></svg>