<svg id="Layer_12" data-name="Layer 12" xmlns="http://www.w3.org/2000/svg" viewBox="0 0 50.02 53.63"><defs><style>.cls-1{fill:#ff6259;}.cls-2{fill:#ff805c;}.cls-3{fill:#f1654b;}.cls-4{fill:#ab4a3c;}</style></defs><path class="cls-1" d="M40.17,22.1h7.36A2.49,2.49,0,0,1,50,24.58v4.61a2.49,2.49,0,0,1-2.49,2.49H40.17a0,0,0,0,1,0,0V22.1A0,0,0,0,1,40.17,22.1Z"/><path class="cls-1" d="M1555.33,547.16h7.36a2.49,2.49,0,0,1,2.49,2.49v4.61a2.49,2.49,0,0,1-2.49,2.49h-7.36a0,0,0,0,1,0,0v-9.58a0,0,0,0,1,0,0Z" transform="translate(1565.17 578.83) rotate(-180)"/><rect class="cls-2" x="7.61" y="1.94" width="34.8" height="51.68" rx="7.42"/><path class="cls-3" d="M1583.44,527h-6.21a14.29,14.29,0,0,0-14.29,14.3v4.1h34.8v-4.1A14.3,14.3,0,0,0,1583.44,527Z" transform="translate(-1555.33 -525.06)"/><path class="cls-4" d="M1565.21,534s2.25,11.23,24.08,12.52l.32-3.53s1,3.53,8.67,4.17c0,0,4.18-10.92-5.78-18S1567.78,524.37,1565.21,534Z" transform="translate(-1555.33 -525.06)"/></svg>